<svg width="948" height="279" viewBox="0 0 948 279" fill="none" xmlns="http://www.w3.org/2000/svg">
<g clip-path="url(#clip0)">
<path d="M947.07 273.408H870.281V161.388H947.07V183.807H892.701V206.227H929.492V228.647H892.701V250.988H947.07V273.408Z" fill="white"/>
<path d="M857.311 261.924C852.104 266.406 846.274 269.841 839.816 272.235C833.358 274.629 826.667 275.826 819.742 275.826C814.427 275.826 809.31 275.138 804.39 273.756C799.47 272.379 794.861 270.428 790.564 267.902C786.267 265.376 782.346 262.341 778.809 258.799C775.266 255.258 772.231 251.339 769.706 247.043C767.18 242.746 765.229 238.138 763.846 233.216C762.47 228.295 761.775 223.178 761.775 217.867C761.775 212.554 762.47 207.425 763.846 202.478C765.229 197.53 767.18 192.908 769.706 188.612C772.231 184.316 775.266 180.396 778.809 176.855C782.346 173.314 786.267 170.28 790.564 167.755C794.861 165.229 799.47 163.276 804.39 161.896C809.31 160.516 814.427 159.826 819.742 159.826C826.667 159.826 833.358 161.011 839.816 163.38C846.274 165.75 852.104 169.2 857.311 173.731L845.442 193.26C842.156 189.718 838.278 186.998 833.801 185.097C829.324 183.196 824.638 182.245 819.742 182.245C814.792 182.245 810.154 183.183 805.832 185.058C801.511 186.932 797.734 189.471 794.508 192.674C791.276 195.877 788.727 199.653 786.853 204.001C784.98 208.349 784.04 212.971 784.04 217.867C784.04 222.762 784.98 227.357 786.853 231.654C788.727 235.95 791.276 239.713 794.508 242.941C797.734 246.17 801.511 248.723 805.832 250.597C810.154 252.472 814.792 253.41 819.742 253.41C824.638 253.41 829.324 252.459 833.801 250.558C838.278 248.657 842.156 245.936 845.442 242.395L857.311 261.924Z" fill="white"/>
<path d="M747.094 273.408H723.112L679.911 199.665V273.408H657.49V161.388H681.473L724.674 235.208V161.388H747.094V273.408Z" fill="white"/>
<path d="M638.041 228.647C638.041 234.844 636.869 240.664 634.526 246.105C632.182 251.548 628.979 256.287 624.917 260.322C620.855 264.359 616.103 267.549 610.661 269.895C605.219 272.235 599.399 273.408 593.202 273.408C587.005 273.408 581.185 272.235 575.743 269.895C570.301 267.549 565.562 264.359 561.526 260.322C557.49 256.287 554.3 251.548 551.957 246.105C549.613 240.664 548.442 234.844 548.442 228.647V161.388H570.782V228.647C570.782 231.719 571.368 234.61 572.54 237.317C573.712 240.026 575.313 242.395 577.345 244.426C579.375 246.457 581.758 248.058 584.492 249.23C587.226 250.402 590.129 250.988 593.202 250.988C596.274 250.988 599.178 250.402 601.912 249.23C604.646 248.058 607.029 246.457 609.059 244.426C611.091 242.395 612.692 240.026 613.864 237.317C615.036 234.61 615.622 231.719 615.622 228.647V161.388H638.041V228.647Z" fill="white"/>
<path d="M535.005 217.867C535.005 223.178 534.315 228.295 532.935 233.216C531.555 238.138 529.615 242.746 527.116 247.043C524.616 251.339 521.595 255.258 518.054 258.799C514.513 262.341 510.607 265.376 506.336 267.902C502.066 270.428 497.457 272.379 492.51 273.756C487.563 275.138 482.433 275.826 477.121 275.826C471.809 275.826 466.692 275.138 461.771 273.756C456.85 272.379 452.241 270.428 447.945 267.902C443.648 265.376 439.729 262.341 436.188 258.799C432.647 255.258 429.613 251.339 427.087 247.043C424.562 242.746 422.609 238.138 421.229 233.216C419.849 228.295 419.159 223.178 419.159 217.867C419.159 212.554 419.849 207.425 421.229 202.478C422.609 197.53 424.562 192.921 427.087 188.651C429.613 184.381 432.647 180.475 436.188 176.933C439.729 173.392 443.648 170.372 447.945 167.872C452.241 165.372 456.85 163.432 461.771 162.053C466.692 160.672 471.809 159.982 477.121 159.982C482.433 159.982 487.563 160.672 492.51 162.053C497.457 163.432 502.066 165.372 506.336 167.872C510.607 170.372 514.513 173.392 518.054 176.933C521.595 180.475 524.616 184.381 527.116 188.651C529.615 192.921 531.555 197.53 532.935 202.478C534.315 207.425 535.005 212.554 535.005 217.867ZM512.742 217.867C512.742 212.971 511.804 208.349 509.93 204.001C508.055 199.653 505.516 195.877 502.314 192.674C499.111 189.471 495.335 186.932 490.987 185.058C486.638 183.183 482.016 182.245 477.121 182.245C472.174 182.245 467.539 183.183 463.216 185.058C458.894 186.932 455.118 189.471 451.889 192.674C448.66 195.877 446.109 199.653 444.234 204.001C442.359 208.349 441.422 212.971 441.422 217.867C441.422 222.762 442.359 227.357 444.234 231.654C446.109 235.95 448.66 239.713 451.889 242.941C455.118 246.17 458.894 248.723 463.216 250.597C467.539 252.472 472.174 253.41 477.121 253.41C482.016 253.41 486.638 252.472 490.987 250.597C495.335 248.723 499.111 246.17 502.314 242.941C505.516 239.713 508.055 235.95 509.93 231.654C511.804 227.357 512.742 222.762 512.742 217.867Z" fill="white"/>
<path d="M408.301 239.817C408.301 244.452 407.415 248.8 405.644 252.863C403.874 256.925 401.466 260.479 398.419 263.527C395.372 266.573 391.818 268.979 387.756 270.751C383.694 272.523 379.346 273.408 374.711 273.408H318.701V161.388H374.711C379.346 161.388 383.694 162.273 387.756 164.044C391.818 165.815 395.372 168.223 398.419 171.27C401.466 174.317 403.874 177.871 405.644 181.933C407.415 185.995 408.301 190.343 408.301 194.978C408.301 197.062 408.014 199.197 407.441 201.384C406.868 203.571 406.061 205.68 405.02 207.711C403.978 209.742 402.728 211.591 401.27 213.257C399.812 214.924 398.198 216.304 396.427 217.398C398.25 218.387 399.89 219.728 401.348 221.421C402.806 223.113 404.057 224.975 405.098 227.006C406.139 229.037 406.934 231.159 407.48 233.372C408.027 235.586 408.301 237.734 408.301 239.817V239.817ZM341.121 250.988H374.711C376.273 250.988 377.731 250.701 379.085 250.128C380.439 249.556 381.624 248.761 382.639 247.746C383.655 246.73 384.449 245.546 385.022 244.192C385.595 242.837 385.881 241.379 385.881 239.817C385.881 238.255 385.595 236.797 385.022 235.443C384.449 234.089 383.655 232.904 382.639 231.888C381.624 230.873 380.439 230.079 379.085 229.506C377.731 228.933 376.273 228.647 374.711 228.647H341.121V250.988ZM341.121 206.227H374.711C376.273 206.227 377.731 205.941 379.085 205.368C380.439 204.795 381.624 204.001 382.639 202.985C383.655 201.969 384.449 200.772 385.022 199.392C385.595 198.012 385.881 196.541 385.881 194.978C385.881 193.416 385.595 191.958 385.022 190.604C384.449 189.25 383.655 188.065 382.639 187.05C381.624 186.034 380.439 185.24 379.085 184.667C377.731 184.094 376.273 183.807 374.711 183.807H341.121V206.227Z" fill="white"/>
<path d="M817.162 57.4157C817.162 62.5713 816.498 67.5318 815.169 72.2966C813.841 77.062 811.955 81.5144 809.507 85.6543C807.059 89.7949 804.145 93.5703 800.757 96.9813C797.369 100.392 793.599 103.322 789.433 105.769C785.261 108.217 780.796 110.105 776.032 111.433C771.268 112.761 766.306 113.425 761.153 113.425H727.403V1.40591H761.153C766.306 1.40591 771.268 2.07027 776.032 3.39778C780.796 4.72589 785.261 6.61362 789.433 9.06155C793.599 11.5089 797.369 14.4386 800.757 17.8496C804.145 21.2605 807.059 25.0365 809.507 29.1765C811.955 33.3164 813.841 37.7694 815.169 42.5342C816.498 47.2996 817.162 52.2601 817.162 57.4157V57.4157ZM794.742 57.4157C794.742 52.7808 793.868 48.432 792.126 44.3698C790.379 40.3083 787.985 36.7537 784.938 33.7073C781.892 30.6608 778.325 28.2518 774.237 26.4814C770.149 24.711 765.786 23.8257 761.153 23.8257H749.979V91.0057H761.153C765.786 91.0057 770.149 90.133 774.237 88.3884C778.325 86.6443 781.892 84.2484 784.938 81.2019C787.985 78.1555 790.379 74.5884 792.126 70.4999C793.868 66.412 794.742 62.0506 794.742 57.4157Z" fill="white"/>
<path d="M706.627 1.40591H684.208V113.425H706.627V1.40591Z" fill="white"/>
<path d="M664.756 68.6642C664.756 74.8613 663.583 80.6812 661.243 86.1229C658.897 91.5653 655.695 96.3043 651.633 100.34C647.571 104.377 642.819 107.566 637.377 109.91C631.935 112.253 626.115 113.425 619.918 113.425C613.721 113.425 607.901 112.253 602.459 109.91C597.016 107.566 592.277 104.377 588.242 100.34C584.205 96.3043 581.016 91.5653 578.672 86.1229C576.329 80.6812 575.157 74.8613 575.157 68.6642V1.40591H597.498V68.6642C597.498 71.737 598.084 74.6272 599.256 77.3349C600.427 80.0432 602.029 82.4128 604.06 84.4435C606.091 86.4749 608.474 88.0759 611.208 89.2478C613.942 90.4197 616.845 91.0057 619.918 91.0057C622.99 91.0057 625.894 90.4197 628.628 89.2478C631.362 88.0759 633.745 86.4749 635.775 84.4435C637.806 82.4128 639.408 80.0432 640.58 77.3349C641.751 74.6272 642.337 71.737 642.337 68.6642V1.40591H664.756V68.6642Z" fill="white"/>
<path d="M546.723 135.844H521.257L507.821 115.69C507.092 115.794 506.402 115.847 505.751 115.847C505.1 115.847 504.462 115.847 503.837 115.847C498.525 115.847 493.409 115.156 488.487 113.776C483.566 112.397 478.957 110.444 474.661 107.918C470.364 105.392 466.445 102.358 462.904 98.8169C459.363 95.2761 456.329 91.357 453.804 87.0608C451.278 82.7641 449.325 78.1555 447.945 73.2339C446.564 68.3129 445.874 63.1962 445.874 57.8844C445.874 52.5725 446.564 47.4426 447.945 42.4953C449.325 37.548 451.278 32.9388 453.804 28.669C456.329 24.3985 459.363 20.4926 462.904 16.9512C466.445 13.4098 470.364 10.3897 474.661 7.88965C478.957 5.39025 483.566 3.44984 488.487 2.07026C493.409 0.69008 498.525 0 503.837 0C509.149 0 514.278 0.69008 519.226 2.07026C524.173 3.44984 528.782 5.39025 533.053 7.88965C537.323 10.3897 541.229 13.4098 544.77 16.9512C548.311 20.4926 551.332 24.3985 553.831 28.669C556.331 32.9388 558.271 37.548 559.651 42.4953C561.031 47.4426 561.721 52.5725 561.721 57.8844C561.721 63.4045 560.953 68.7684 559.417 73.9761C557.88 79.1838 555.706 84.0401 552.894 88.5446C550.082 93.0496 546.684 97.1249 542.7 100.77C538.716 104.415 534.277 107.462 529.381 109.91L546.723 135.844ZM539.458 57.8844C539.458 52.9891 538.521 48.3667 536.646 44.0185C534.771 39.6703 532.232 35.8943 529.029 32.6916C525.827 29.4889 522.051 26.95 517.702 25.0755C513.354 23.2003 508.732 22.263 503.837 22.263C498.89 22.263 494.255 23.2003 489.932 25.0755C485.61 26.95 481.834 29.4889 478.606 32.6916C475.377 35.8943 472.825 39.6703 470.95 44.0185C469.075 48.3667 468.138 52.9891 468.138 57.8844C468.138 62.7796 469.075 67.3756 470.95 71.6718C472.825 75.9679 475.377 79.7308 478.606 82.9598C481.834 86.1882 485.61 88.7403 489.932 90.6148C494.255 92.49 498.89 93.4273 503.837 93.4273C508.732 93.4273 513.354 92.49 517.702 90.6148C522.051 88.7403 525.827 86.1882 529.029 82.9598C532.232 79.7308 534.771 75.9679 536.646 71.6718C538.521 67.3756 539.458 62.7796 539.458 57.8844Z" fill="white"/>
<path d="M431.189 1.40591H408.769V113.425H431.189V1.40591Z" fill="white"/>
<path d="M397.13 113.425H318.701V1.40591H341.121V91.0057H397.13V113.425Z" fill="white"/>
<path fill-rule="evenodd" clip-rule="evenodd" d="M263.182 147.409C263.182 74.7827 204.217 15.8192 131.59 15.8192H0V147.409C0 220.037 58.9635 279 131.59 279C204.217 279 263.182 220.037 263.182 147.409V147.409Z" fill="white"/>
</g>
<defs>
<clipPath id="clip0">
<rect width="947.07" height="279" fill="white"/>
</clipPath>
</defs>
</svg>
